<svg width="304" height="57" viewBox="0 0 304 57" fill="none" xmlns="http://www.w3.org/2000/svg">
<path d="M20 21V35.9139C19.5962 36.1044 19.1996 36.2894 18.8098 36.4677C15.5346 37.9663 12.5416 39.1229 10 40V24.8859C13.5652 23.7023 16.8939 22.3959 20 21Z" fill="url(#paint0_linear_22_115)"/>
<path d="M34 13V27.8742C30.48 30.3037 27.1058 32.3259 24 34V18.9434C27.669 17.0584 30.9927 15.0541 34 13Z" fill="url(#paint1_linear_22_115)"/>
<path d="M34 44V50.0151C31.9853 50.6562 29.8541 51 27.6488 51C26.4063 51 25.1879 50.8915 24 50.6813C24.3533 50.4744 24.704 50.2654 25.0522 50.0557C28.1532 48.1876 31.1571 46.1542 34 44Z" fill="url(#paint2_linear_22_115)"/>
<path d="M48 1V16.3584C44.6467 19.6241 41.2824 22.4897 38 25V10.051C38.975 9.29644 39.9107 8.5404 40.8084 7.7851C41.9294 6.84246 42.992 5.9013 43.9969 4.96754C45.4474 3.62207 46.7784 2.29289 48 1Z" fill="url(#paint3_linear_22_115)"/>
<path d="M48 32V37.4866C45.8986 41.9955 42.3697 45.6964 38 48V41.0613C38.4637 40.6992 38.9216 40.3331 39.3744 39.9651C42.4297 37.4831 45.3228 34.8104 48 32Z" fill="url(#paint4_linear_22_115)"/>
<path d="M49.8636 45.6953C42.216 53.2212 31.074 55.2144 21.5753 51.6749C21.5753 51.6749 19.6536 52.6278 17.2889 53.7111C16.9951 53.8428 16.7005 53.9739 16.4049 54.105C16.4049 54.105 16.4103 54.1073 16.413 54.1086C14.5442 54.9498 12.5215 55.8097 11 56.3241C11 56.3241 14.7179 56.1094 18.5509 55.0448C28.7207 59.0098 40.7561 56.9443 48.9833 48.8487C53.5133 44.3912 56.1858 38.7979 57 33C55.9245 37.6528 53.545 42.0729 49.8636 45.6953Z" fill="url(#paint5_linear_22_115)"/>
<path d="M56.6207 23C56.6207 23 53.407 27.0729 50.3969 30.3143C50.3969 30.3143 51.8796 29.4042 53.5124 28.3123C53.7134 34.5783 51.2649 40.9051 46.167 45.6874C42.6946 48.9447 38.459 51.0494 34 52C39.5556 51.2803 44.9166 48.9164 49.1883 44.9093C55.5439 38.9472 58.0211 30.7239 56.6207 23Z" fill="url(#paint6_linear_22_115)"/>
<path d="M65 0L64.9956 0.421092L64.885 12.3244L61.9262 9.33216C60.6505 11.85 58.6729 15.5522 55.6614 19.8611C54.7939 21.1031 53.8404 22.3958 52.7925 23.7247C51.505 25.3581 50.0764 27.0468 48.4913 28.7649C45.6669 31.8258 42.3467 34.9811 38.447 38.0831C37.135 39.1271 35.7576 40.1645 34.3112 41.1909C31.2761 43.3453 27.9375 45.4493 24.2672 47.451C22.933 48.1785 21.555 48.8932 20.1317 49.5911C19.8858 49.7119 19.6388 49.8318 19.3905 49.9514C17.7903 50.7218 16.1334 51.472 14.4184 52.1987C13.0143 52.7934 11.5709 53.3725 10.0871 53.934C9.12902 54.2974 8.15346 54.6526 7.16138 55C5.38168 53.3672 3.97486 51.6508 2.89593 50.1057C0.867641 47.2011 0 44.9026 0 44.9026C0 44.9026 2.07342 44.5977 5.60008 43.632C5.18577 42.9995 4.79993 42.3532 4.44299 41.6968C-1.30359 31.135 0.345975 17.6963 9.39185 8.78531C13.9287 4.31552 19.6223 1.67855 25.5239 0.875096C20.7879 1.93661 16.2888 4.28409 12.6011 7.9168C3.65039 16.735 2.38836 30.2584 8.81451 40.4035C9.21544 41.0366 9.6467 41.6565 10.1079 42.2619C13.0022 41.2983 16.398 40.0095 20.1317 38.3023C21.4695 37.6912 22.8501 37.026 24.2672 36.3029C27.4607 34.6741 30.8375 32.7507 34.3112 30.4836C35.6768 29.5931 37.0571 28.6493 38.447 27.6499C41.7619 25.2652 45.1341 22.5617 48.4913 19.4999C49.1681 18.8822 49.8442 18.2505 50.5202 17.6035C51.505 16.6597 52.4867 15.6837 53.4655 14.6764C55.4433 12.6366 57.4047 10.4639 59.3326 8.14853L55.2578 7.73183L65 0Z" fill="url(#paint7_linear_22_115)"/>
<path d="M42 3.43443C40.7541 4.50602 39.587 5.43512 38.5509 6.21663C29.6046 2.52279 18.8762 4.23776 11.586 11.363C8.18799 14.6839 5.99209 18.7354 5 23C5.75098 17.6856 8.21751 12.5582 12.398 8.47249C20.4045 0.647877 32.3173 -1.0322 42 3.43443Z" fill="url(#paint8_linear_22_115)"/>
<path d="M65 0L64.8893 11.9953L61.9353 8.98035C60.6618 11.5174 58.6869 15.2482 55.6806 19.5905C54.8145 20.8421 53.8621 22.1444 52.8161 23.4842C51.5307 25.13 50.1051 26.831 48.5221 28.5627C45.702 31.6474 42.3871 34.8269 38.4933 37.9527C37.1836 39.0047 35.809 40.0501 34.3648 41.0844C31.3343 43.2551 28.0016 45.3753 24.3368 47.3928C23.0048 48.1258 21.6292 48.846 20.2081 49.5494C19.9626 49.671 19.716 49.792 19.4681 49.9124C17.8706 50.6888 16.2162 51.4448 14.504 52.1771C13.1022 52.7763 11.6611 53.36 10.1797 53.9258C9.22315 54.2919 8.24917 54.6499 7.25869 55C5.48187 53.3545 4.07733 51.6249 3 50.068C12.9026 47.4356 49.5919 35.5001 65 0Z" fill="#1464A5"/>
<path d="M102.617 42.1743H81V40.8165C81.6902 40.7937 82.255 40.7258 82.6942 40.6128C83.1335 40.4996 83.4681 40.3073 83.6982 40.0358C83.9283 39.7642 84.0852 39.3794 84.1689 38.8817C84.2525 38.3836 84.2944 37.7387 84.2944 36.9468V21.2642C84.2944 20.4721 84.2525 19.8385 84.1689 19.3633C84.1061 18.8653 83.9701 18.4807 83.761 18.2092C83.5518 17.9148 83.2485 17.7226 82.8511 17.6321C82.4746 17.5189 81.9726 17.4396 81.3451 17.3945V16.0367H92.1695V17.3945C91.4583 17.417 90.8831 17.4849 90.4438 17.5982C90.0255 17.7112 89.7013 17.9148 89.4712 18.2092C89.2411 18.5033 89.0843 18.9106 89.0006 19.4312C88.9378 19.9515 88.9065 20.6418 88.9065 21.5018V35.7248C88.9065 36.6752 88.9901 37.456 89.1575 38.067C89.3457 38.6552 89.6595 39.1193 90.0987 39.4587C90.538 39.7754 91.1236 40.0018 91.8557 40.1376C92.5878 40.2506 93.4977 40.3073 94.5853 40.3073C95.7985 40.3073 96.8129 40.2281 97.6287 40.0697C98.4444 39.9112 99.1242 39.617 99.668 39.1872C100.233 38.7345 100.683 38.1349 101.017 37.3881C101.352 36.6413 101.634 35.668 101.864 34.4688H103.119L102.617 42.1743ZM120.529 39.0174C118.625 41.3482 116.251 42.5138 113.407 42.5138C112.11 42.5138 110.928 42.2987 109.861 41.8688C108.815 41.4161 107.916 40.7937 107.163 40.0018C106.41 39.1872 105.824 38.2253 105.406 37.1165C104.988 36.0075 104.779 34.7743 104.779 33.4165C104.779 32.0134 104.998 30.7349 105.437 29.5807C105.877 28.4038 106.494 27.3969 107.289 26.5596C108.104 25.6996 109.056 25.0321 110.144 24.5569C111.252 24.0816 112.465 23.844 113.783 23.844C116 23.844 117.726 24.489 118.96 25.7789C120.194 27.0688 120.811 28.879 120.811 31.2101C120.811 31.5721 120.759 31.7983 120.654 31.889C120.55 31.9569 120.257 31.9908 119.776 31.9908H109.673C109.589 32.1945 109.548 32.5679 109.548 33.111C109.548 35.3286 109.987 37.0826 110.865 38.3725C111.765 39.6624 112.978 40.3073 114.505 40.3073C115.383 40.3073 116.251 40.0923 117.109 39.6624C117.987 39.2322 118.835 38.6212 119.65 37.8294L120.529 39.0174ZM114.442 30.0899C115.279 30.0899 115.812 30.0446 116.042 29.9541C116.293 29.8409 116.419 29.5919 116.419 29.2073C116.419 28.2115 116.157 27.3969 115.634 26.7633C115.111 26.1295 114.452 25.8128 113.658 25.8128C112.758 25.8128 111.953 26.2202 111.242 27.0349C110.552 27.8267 110.102 28.8451 109.893 30.0899H114.442ZM132.732 32.5C130.975 33.3598 129.647 34.1633 128.748 34.9101C127.869 35.6341 127.43 36.3923 127.43 37.1844C127.43 37.8405 127.597 38.3611 127.932 38.7459C128.266 39.1304 128.685 39.3229 129.187 39.3229C129.689 39.3229 130.159 39.2323 130.599 39.0514C131.038 38.8477 131.414 38.5873 131.728 38.2706C132.042 37.9537 132.282 37.5803 132.45 37.1505C132.638 36.6978 132.732 36.2226 132.732 35.7248V32.5ZM132.732 30.7009V29.2752C132.732 27.9625 132.513 27.0121 132.073 26.4239C131.655 25.8128 130.996 25.5073 130.097 25.5073C129.49 25.5073 129.03 25.6882 128.716 26.0505C128.402 26.3899 128.11 26.967 127.838 27.7817C127.649 28.3473 127.378 28.7886 127.022 29.1055C126.687 29.4222 126.217 29.5807 125.61 29.5807C125.025 29.5807 124.575 29.3882 124.261 29.0037C123.947 28.6189 123.79 28.0758 123.79 27.3743C123.79 26.2881 124.334 25.4281 125.422 24.7945C126.531 24.1607 128.193 23.844 130.41 23.844C132.753 23.844 134.426 24.3079 135.43 25.2358C136.434 26.1409 136.936 27.6684 136.936 29.8184V37.2523C136.936 39.1758 137.292 40.1376 138.003 40.1376C138.401 40.1376 138.767 39.9904 139.101 39.6963L139.572 40.6807C139.279 41.2464 138.819 41.6991 138.191 42.0385C137.585 42.3552 136.895 42.5138 136.121 42.5138C135.159 42.5138 134.426 42.1969 133.924 41.5633C133.422 40.9295 133.171 40.0358 133.171 38.8817H133.015C132.408 40.0583 131.624 40.9523 130.661 41.5633C129.699 42.1743 128.601 42.4798 127.367 42.4798C126.049 42.4798 124.993 42.0836 124.198 41.2917C123.403 40.4771 123.006 39.4248 123.006 38.1349C123.006 37.1391 123.414 36.2111 124.23 35.3514C125.045 34.4688 126.405 33.6088 128.308 32.7716L132.732 30.7009ZM155.047 40.0018H154.921C153.478 41.6763 151.606 42.5138 149.305 42.5138C148.113 42.5138 147.015 42.2873 146.011 41.8349C145.028 41.3822 144.17 40.7486 143.438 39.9339C142.727 39.1193 142.172 38.1574 141.775 37.0486C141.378 35.917 141.179 34.6725 141.179 33.3147C141.179 31.9569 141.378 30.7009 141.775 29.5468C142.193 28.3927 142.748 27.3969 143.438 26.5596C144.149 25.6996 144.986 25.0321 145.948 24.5569C146.931 24.0816 147.987 23.844 149.117 23.844C150.163 23.844 151.083 24.0138 151.878 24.3532C152.694 24.6927 153.405 25.2697 154.011 26.0844H154.137V23.1991C154.137 21.8638 154.116 20.7211 154.074 19.7706C154.053 18.7974 154.011 18.1638 153.949 17.8697C153.844 17.3945 153.52 17.0551 152.976 16.8514C152.453 16.6249 151.637 16.5119 150.529 16.5119V15.3578L158.467 14V33.4165C158.467 35.1138 158.477 36.4262 158.498 37.3541C158.54 38.2592 158.602 38.9495 158.686 39.4248C158.728 39.7189 158.791 39.9565 158.874 40.1376C158.958 40.3185 159.084 40.4657 159.251 40.5789C159.418 40.6693 159.638 40.7372 159.91 40.7826C160.202 40.8051 160.569 40.8165 161.008 40.8165V42.1404L155.047 42.5138V40.0018ZM154.074 32.4321C154.074 31.5721 153.99 30.78 153.823 30.056C153.656 29.3092 153.405 28.6528 153.07 28.0872C152.694 27.4308 152.212 26.933 151.627 26.5936C151.041 26.2541 150.414 26.0844 149.744 26.0844C148.51 26.0844 147.569 26.6954 146.921 27.9174C146.272 29.1395 145.948 30.9157 145.948 33.2468C145.948 35.6001 146.272 37.4106 146.921 38.678C147.569 39.9451 148.5 40.5789 149.713 40.5789C150.403 40.5789 151.062 40.3864 151.69 40.0018C152.317 39.617 152.829 39.0965 153.227 38.4404C153.52 37.9423 153.729 37.3313 153.854 36.6073C154.001 35.8606 154.074 34.9101 154.074 33.756V32.4321ZM171.227 38.1688H177.628C178.151 38.1688 178.611 38.1235 179.008 38.033C179.406 37.9198 179.751 37.7161 180.044 37.422C180.357 37.1277 180.64 36.7317 180.891 36.2339C181.142 35.7134 181.383 35.057 181.612 34.2651H182.993L181.738 42.1743H165.298V40.6128C167.787 38.3046 169.826 36.313 171.416 34.6385C173.005 32.9413 174.25 31.4363 175.149 30.1239C176.07 28.7886 176.697 27.5666 177.032 26.4578C177.387 25.3262 177.565 24.1607 177.565 22.9615C177.565 21.3093 177.22 20.0083 176.53 19.0578C175.839 18.1073 174.898 17.6321 173.706 17.6321C173.141 17.6321 172.608 17.7451 172.106 17.9716C171.625 18.1752 171.207 18.4693 170.851 18.8541C170.516 19.2387 170.244 19.7028 170.035 20.2459C169.847 20.789 169.753 21.3772 169.753 22.011C169.753 23.1423 170.014 24.0363 170.537 24.6927C171.081 25.3488 171.813 25.6771 172.733 25.6771C172.629 26.3332 172.336 26.8537 171.855 27.2385C171.395 27.6231 170.83 27.8156 170.161 27.8156C169.512 27.8156 168.906 27.691 168.341 27.4422C167.797 27.1932 167.316 26.8423 166.898 26.3899C166.5 25.9372 166.187 25.4055 165.956 24.7945C165.726 24.1607 165.611 23.4706 165.611 22.7239C165.611 21.7055 165.821 20.7776 166.239 19.9404C166.678 19.0803 167.285 18.3336 168.059 17.7C168.833 17.0662 169.742 16.5798 170.788 16.2404C171.855 15.8781 173.005 15.6972 174.239 15.6972C175.474 15.6972 176.603 15.8781 177.628 16.2404C178.653 16.6024 179.531 17.1115 180.263 17.7679C181.016 18.4014 181.592 19.1708 181.989 20.0761C182.407 20.9587 182.616 21.9431 182.616 23.0294C182.616 24.3872 182.324 25.711 181.738 27.0009C181.173 28.2908 180.379 29.5468 179.353 30.7688C178.349 31.9908 177.147 33.2014 175.745 34.4009C174.365 35.6001 172.849 36.7996 171.196 37.9991L171.227 38.1688Z" fill="#1B467D"/>
<path d="M205.073 35.8266L212.321 16.0367H221.482V17.3945C220.792 17.3945 220.227 17.4735 219.788 17.6321C219.37 17.7679 219.046 18.028 218.815 18.4128C218.585 18.7974 218.429 19.3293 218.345 20.0082C218.282 20.6643 218.251 21.5018 218.251 22.5202V35.6908C218.251 36.8222 218.293 37.7161 218.376 38.3725C218.46 39.0286 218.627 39.5377 218.878 39.9C219.129 40.262 219.485 40.4996 219.945 40.6128C220.426 40.7258 221.054 40.7937 221.827 40.8165V42.1743H210.03V40.8165C210.804 40.7937 211.421 40.7258 211.882 40.6128C212.363 40.477 212.729 40.2394 212.98 39.9C213.252 39.5605 213.429 39.0853 213.513 38.4743C213.597 37.8405 213.639 36.9919 213.639 35.9284V20.0422H213.482L205.042 42.5137H202.72L193.998 20.0422H193.872V35.6908C193.872 36.8222 193.914 37.7161 193.998 38.3725C194.082 39.0286 194.249 39.5377 194.5 39.9C194.751 40.262 195.107 40.4996 195.567 40.6128C196.048 40.7258 196.675 40.7937 197.449 40.8165V42.1743H187.786V40.8165C188.56 40.7937 189.187 40.7258 189.668 40.6128C190.149 40.477 190.515 40.2394 190.766 39.9C191.038 39.5605 191.216 39.0853 191.3 38.4743C191.383 37.8405 191.425 36.9919 191.425 35.9284V22.2826C191.425 21.3321 191.383 20.54 191.3 19.9064C191.216 19.2726 191.059 18.7748 190.829 18.4128C190.599 18.028 190.264 17.7679 189.825 17.6321C189.407 17.4735 188.842 17.3945 188.131 17.3945V16.0367H197.637L204.948 35.8266H205.073ZM232.31 23.844C233.564 23.844 234.746 24.0816 235.855 24.5569C236.984 25.0093 237.967 25.6431 238.804 26.4578C239.662 27.2725 240.331 28.2455 240.812 29.3771C241.314 30.4858 241.565 31.7079 241.565 33.0431C241.565 34.4234 241.314 35.6908 240.812 36.8449C240.331 37.9991 239.662 38.9946 238.804 39.8321C237.967 40.6693 236.984 41.3257 235.855 41.8009C234.746 42.2761 233.564 42.5137 232.31 42.5137C231.076 42.5137 229.904 42.2873 228.796 41.8348C227.687 41.3596 226.714 40.7033 225.878 39.866C225.041 39.0286 224.382 38.033 223.901 36.8789C223.42 35.702 223.179 34.4234 223.179 33.0431C223.179 31.7079 223.42 30.4744 223.901 29.3431C224.382 28.2115 225.041 27.2385 225.878 26.4238C226.714 25.6092 227.687 24.9754 228.796 24.5229C229.904 24.0702 231.076 23.844 232.31 23.844ZM232.31 25.8128C231.682 25.8128 231.107 25.9937 230.584 26.3559C230.061 26.6954 229.611 27.1818 229.235 27.8156C228.879 28.4491 228.597 29.2185 228.388 30.1238C228.199 31.0064 228.105 31.9908 228.105 33.077C228.105 34.2084 228.199 35.2267 228.388 36.1321C228.597 37.0372 228.879 37.8066 229.235 38.4404C229.611 39.0739 230.05 39.5717 230.552 39.9339C231.076 40.2734 231.661 40.4431 232.31 40.4431C232.958 40.4431 233.544 40.2734 234.066 39.9339C234.61 39.5717 235.07 39.0739 235.447 38.4404C235.823 37.784 236.116 37.0033 236.325 36.0982C236.535 35.1928 236.639 34.1858 236.639 33.077C236.639 31.9908 236.535 31.0064 236.325 30.1238C236.116 29.2413 235.823 28.4831 235.447 27.8495C235.07 27.1932 234.61 26.6954 234.066 26.3559C233.544 25.9937 232.958 25.8128 232.31 25.8128ZM250.794 36.6413C250.794 37.5689 250.815 38.3046 250.857 38.8477C250.92 39.368 251.035 39.7754 251.202 40.0697C251.39 40.3413 251.662 40.5221 252.018 40.6128C252.394 40.7033 252.896 40.7712 253.524 40.8165V42.1743H243.641V40.8165C244.247 40.7712 244.729 40.7033 245.084 40.6128C245.46 40.5221 245.743 40.3413 245.931 40.0697C246.14 39.7982 246.276 39.4134 246.339 38.9156C246.402 38.4176 246.433 37.7387 246.433 36.8789V32.6358C246.433 31.3005 246.412 30.2257 246.37 29.411C246.329 28.5735 246.276 28.0079 246.213 27.7137C246.151 27.4194 246.067 27.1818 245.962 27.0009C245.858 26.7972 245.701 26.6501 245.492 26.5596C245.283 26.4464 245.021 26.3785 244.707 26.3559C244.394 26.3106 243.996 26.2881 243.515 26.2881V25.1339L249.571 23.844L249.978 26.8312H250.104C250.794 25.8807 251.61 25.1451 252.551 24.6248C253.492 24.1042 254.528 23.844 255.657 23.844C256.996 23.844 258.073 24.0477 258.889 24.455C259.726 24.8396 260.468 25.4959 261.117 26.4238C261.472 26.9442 261.786 27.6231 262.058 28.4605C262.33 29.2752 262.466 30.4066 262.466 31.855V36.6413C262.466 37.5689 262.487 38.3046 262.528 38.8477C262.591 39.368 262.706 39.7754 262.874 40.0697C263.062 40.3413 263.334 40.5221 263.689 40.6128C264.045 40.7033 264.526 40.7712 265.133 40.8165V42.1743H255.312V40.8165C255.94 40.7937 256.431 40.7372 256.787 40.6468C257.163 40.5335 257.446 40.3413 257.634 40.0697C257.822 39.7982 257.948 39.4134 258.01 38.9156C258.073 38.395 258.105 37.7161 258.105 36.8789V32.2624C258.105 31.1082 258.042 30.135 257.916 29.3431C257.791 28.551 257.582 27.9174 257.289 27.4422C257.017 26.9442 256.651 26.5936 256.191 26.3899C255.731 26.1634 255.155 26.0504 254.465 26.0504C253.796 26.0504 253.221 26.2541 252.739 26.6615C252.259 27.0688 251.84 27.6345 251.484 28.3587C251.296 28.766 251.129 29.2978 250.982 29.9541C250.857 30.5877 250.794 31.2552 250.794 31.9569V36.6413ZM282.469 39.0174C280.566 41.3482 278.192 42.5137 275.347 42.5137C274.05 42.5137 272.868 42.2987 271.802 41.8688C270.756 41.4161 269.856 40.7937 269.103 40.0018C268.35 39.1871 267.765 38.2253 267.346 37.1165C266.928 36.0075 266.719 34.7743 266.719 33.4165C266.719 32.0134 266.939 30.7349 267.378 29.5807C267.817 28.4038 268.434 27.3968 269.229 26.5596C270.045 25.6996 270.996 25.0321 272.084 24.5569C273.193 24.0816 274.406 23.844 275.724 23.844C277.941 23.844 279.666 24.489 280.9 25.7789C282.135 27.0688 282.752 28.879 282.752 31.2101C282.752 31.5721 282.699 31.7983 282.595 31.889C282.49 31.9569 282.197 31.9908 281.716 31.9908H271.613C271.53 32.1945 271.488 32.5679 271.488 33.111C271.488 35.3286 271.927 37.0826 272.806 38.3725C273.705 39.6624 274.918 40.3073 276.445 40.3073C277.324 40.3073 278.192 40.0923 279.049 39.6624C279.928 39.2322 280.775 38.6212 281.591 37.8293L282.469 39.0174ZM276.382 30.0899C277.219 30.0899 277.752 30.0446 277.983 29.9541C278.234 29.8409 278.359 29.5919 278.359 29.2073C278.359 28.2115 278.098 27.3968 277.575 26.7633C277.052 26.1295 276.393 25.8128 275.598 25.8128C274.699 25.8128 273.893 26.2202 273.182 27.0348C272.492 27.8267 272.042 28.8451 271.833 30.0899H276.382ZM292.485 47.5037C292.257 48.0014 291.963 48.4653 291.608 48.8954C291.273 49.3253 290.886 49.6873 290.447 49.9816C290.028 50.2983 289.589 50.5473 289.129 50.7284C288.669 50.9093 288.209 51 287.748 51C287.058 51 286.504 50.8189 286.086 50.4569C285.667 50.0946 285.458 49.6082 285.458 48.9972C285.458 48.4313 285.636 47.99 285.991 47.6734C286.368 47.3565 286.964 47.1642 287.78 47.0963C289.641 46.9377 290.844 46.3042 291.388 45.1954L292.234 43.4303L286.682 28.5624C286.431 27.906 286.211 27.3854 286.023 27.0009C285.855 26.6161 285.667 26.322 285.458 26.1183C285.249 25.8919 285.008 25.7449 284.736 25.6771C284.465 25.6092 284.13 25.5638 283.732 25.5413V24.1835H293.238V25.5413C292.423 25.5413 291.848 25.6317 291.513 25.8128C291.2 25.9712 291.043 26.2767 291.043 26.7293C291.043 26.9102 291.064 27.1253 291.106 27.3743C291.168 27.6005 291.242 27.8381 291.325 28.0871L294.525 37.9991H294.65L297.348 31.3798C297.622 30.6781 297.85 30.101 298.039 29.6486C298.227 29.1734 298.364 28.7772 298.447 28.4605C298.552 28.1211 298.626 27.8495 298.666 27.6459C298.709 27.4422 298.729 27.2385 298.729 27.0348C298.729 26.4464 298.572 26.0504 298.258 25.8468C297.967 25.6431 297.36 25.5413 296.439 25.5413V24.1835H304V25.5413C303.583 25.5413 303.227 25.6092 302.933 25.7449C302.642 25.8579 302.337 26.1069 302.023 26.4917C301.732 26.8763 301.396 27.4533 301.019 28.2229C300.665 28.9697 300.215 29.9653 299.67 31.2101L292.485 47.5037Z" fill="#1B467D"/>
<defs>
<linearGradient id="paint0_linear_22_115" x1="43.1852" y1="-7.14189" x2="55.598" y2="-33.8264" gradientUnits="userSpaceOnUse">
<stop stop-color="#1B467D"/>
<stop offset="1" stop-color="#05A8FF"/>
</linearGradient>
<linearGradient id="paint1_linear_22_115" x1="68.4034" y1="0.186596" x2="88.1383" y2="-72.1877" gradientUnits="userSpaceOnUse">
<stop stop-color="#1B467D"/>
<stop offset="1" stop-color="#05A8FF"/>
</linearGradient>
<linearGradient id="paint2_linear_22_115" x1="48.0017" y1="31.9598" x2="56.6778" y2="-19.3435" gradientUnits="userSpaceOnUse">
<stop stop-color="#1B467D"/>
<stop offset="1" stop-color="#05A8FF"/>
</linearGradient>
<linearGradient id="paint3_linear_22_115" x1="105.181" y1="-18.3416" x2="126.395" y2="-104.299" gradientUnits="userSpaceOnUse">
<stop stop-color="#1B467D"/>
<stop offset="1" stop-color="#05A8FF"/>
</linearGradient>
<linearGradient id="paint4_linear_22_115" x1="83.4023" y1="11.4998" x2="95.917" y2="-53.832" gradientUnits="userSpaceOnUse">
<stop stop-color="#1B467D"/>
<stop offset="1" stop-color="#05A8FF"/>
</linearGradient>
<linearGradient id="paint5_linear_22_115" x1="60.2718" y1="21.2468" x2="124.701" y2="-13.9348" gradientUnits="userSpaceOnUse">
<stop stop-color="#1B467D"/>
<stop offset="1" stop-color="#05A8FF"/>
</linearGradient>
<linearGradient id="paint6_linear_22_115" x1="83.1126" y1="8.10111" x2="125.197" y2="-29.6238" gradientUnits="userSpaceOnUse">
<stop stop-color="#1B467D"/>
<stop offset="1" stop-color="#05A8FF"/>
</linearGradient>
<linearGradient id="paint7_linear_22_115" x1="26.0514" y1="2.05578" x2="137.549" y2="-116.927" gradientUnits="userSpaceOnUse">
<stop stop-color="#1B467D"/>
<stop offset="1" stop-color="#05A8FF"/>
</linearGradient>
<linearGradient id="paint8_linear_22_115" x1="47.1675" y1="-65.2234" x2="112.834" y2="-106.836" gradientUnits="userSpaceOnUse">
<stop stop-color="#1B467D"/>
<stop offset="1" stop-color="#05A8FF"/>
</linearGradient>
</defs>
</svg>
