<svg version="1.1" id="Layer_1" xmlns="http://www.w3.org/2000/svg" x="0" y="0" viewBox="0 0 130 51" style="enable-background:new 0 0 130 51" xml:space="preserve"><style>.st0,.st1{fill-rule:evenodd;clip-rule:evenodd;fill:#1a5493}.st1{fill:#00afef}</style><path class="st0" d="M40 42.2V31.1h1.4v11.1H40zm4.5 0V31.1h2.3l4 10.1V31.1h1.5v11.1h-2.4l-4-10.2v10.2h-1.4zm10.1-3.6h1.3v1c.1.5.2.9.5 1.3s.9.6 1.9.6c.7 0 1.2-.2 1.6-.5.4-.3.6-.8.6-1.5V39c0-.3-.1-.5-.3-.8-.2-.2-.5-.4-1-.5-.4-.1-.8-.2-1.3-.4-.5-.1-1-.3-1.4-.5h-.2c-.4-.2-.7-.4-1-.6-.2-.2-.4-.4-.5-.6-.1-.2-.2-.4-.2-.5v-1.5c0-.1 0-.2.1-.4.1-.5.5-1.1 1-1.5.5-.5 1.4-.7 2.5-.7s1.8.2 2.3.5c.5.4.8.8 1 1.2.1.3.1.5.2.8v.6h-1.4c0-.7-.2-1.2-.6-1.5-.4-.3-.9-.5-1.5-.5-.7 0-1.3.2-1.6.6-.3.4-.5.8-.5 1.3v.1c0 .5.2.9.7 1.2.5.2 1 .4 1.7.6.1 0 .2.1.3.1.1 0 .2.1.4.1.8.2 1.5.5 2.1 1 .6.4 1 1.1 1 2 0 1.2-.4 2.1-1.1 2.6-.7.5-1.5.8-2.3.8h-.4c-1.8 0-2.8-.4-3.2-1.2-.5-.8-.7-1.7-.7-2.7zm10-7.5H66v8c0 .9.2 1.5.6 1.8.4.3 1 .4 1.7.4.9 0 1.5-.2 1.8-.6.4-.4.5-1 .5-1.8v-7.7h1.5v8.9c0 .2-.1.4-.1.6-.2.5-.5.9-1 1.2-.5.4-1.4.6-2.5.6-1.7 0-2.7-.3-3.2-.9-.5-.6-.7-1.4-.7-2.5v-8zm10.8 11.1V31.1h4.2c.8 0 1.5.2 2.2.6.7.4 1.1 1.1 1.2 2.2v.2c0 .6-.2 1.2-.6 1.6-.4.4-.9.7-1.4.8-.1 0-.1 0-.2.1h-.2.2c.1 0 .2 0 .4.1.1 0 .3.1.4.1.2.1.4.2.7.4.2.2.4.5.4.8 0 .2.1.5.1.8 0 .3.1.6.1.9.1.5.1 1 .3 1.5.1.5.3.7.4.7h.1v.3H82c-.2-.3-.3-.6-.3-.9 0-.3-.1-.7-.1-1.1V40c0-.7-.1-1.4-.3-1.9-.2-.6-.7-.9-1.7-.9h-2.5v4.9h-1.7v.1zm1.4-6.1H79c.7 0 1.3-.1 1.7-.5.4-.3.6-.8.6-1.3V34c-.1-.6-.3-1.1-.7-1.3-.4-.3-1-.4-1.8-.4h-2v3.8zm7.8 6.1 3.5-11.1h2l3.4 11.1H92l-.9-3.1h-3.9l-.9 3.1h-1.7zm6.1-4.3-1.6-5.7-1.6 5.7h3.2zm4.5 4.3V31.1h2.3l4 10.1V31.1h1.5v11.1h-2.4l-4-10.2v10.2h-1.4zm10.1-5.4V35c.1-1 .4-2 .9-2.9.5-.9 1.6-1.3 3.1-1.4.9 0 1.7.3 2.4.8s1.1 1.4 1.1 2.7v.2h-1.3V34c0-.5-.2-1-.5-1.4-.3-.4-.9-.6-1.8-.6-.7 0-1.3.3-1.6.8-.3.6-.6 1.2-.7 1.8-.1.3-.1.7-.1 1V37.1c0 1 .1 1.9.4 2.8.3.9.9 1.3 2 1.3.7 0 1.3-.2 1.6-.6.3-.4.5-.9.6-1.4 0-.2.1-.4.1-.6v-.5h1.5v.4c0 1-.3 2-.8 2.7-.5.8-1.5 1.2-2.8 1.2-1.8-.1-2.9-.6-3.4-1.7-.4-1-.7-2.3-.7-3.9zm9.8 5.4V31.1h6.4v1.2h-5v3.5h4.6V37h-4.6v4h4.9v1.2h-6.3zM38.9 20.1h1.9v1.3c.1.7.3 1.4.8 2.1.4.6 1.3.9 2.7.9.9 0 1.7-.3 2.3-.8.6-.5.9-1.3.9-2.2V20.5c0-.4-.1-.8-.4-1.2-.2-.4-.7-.6-1.5-.8-.5-.2-1.1-.4-1.8-.6-.7-.2-1.4-.5-2.1-.7 0 0-.1 0-.1-.1 0 0-.1 0-.2-.1-.6-.3-1.1-.5-1.4-.8-.3-.3-.6-.6-.7-.9-.1-.3-.2-.5-.3-.8 0-.3-.1-.5-.1-.8v-1.3c0-.2.1-.4.1-.6.2-.8.7-1.6 1.4-2.3.8-.7 1.9-1.1 3.6-1.1 1.5 0 2.6.3 3.3.8.7.6 1.2 1.2 1.4 1.9.1.4.2.8.2 1.2 0 .4.1.7.1 1h-2.1c0-1-.3-1.8-.9-2.3-.6-.5-1.3-.7-2.1-.7-1.1 0-1.8.3-2.3.9-.5.6-.7 1.2-.7 1.9l-.1.1c0 .8.3 1.4 1 1.8.7.4 1.5.7 2.4 1 .2.1.3.1.5.2s.3.1.5.2c1.1.3 2.1.8 3 1.5s1.4 1.7 1.4 3.1c0 1.9-.5 3.2-1.5 4-1 .8-2.1 1.2-3.4 1.3h-.6c-2.5 0-4.1-.6-4.6-1.9-.6-1.2-.8-2.6-.8-4.1.2-.1.2-.1.2-.2 0 .1 0 .1 0 0zm13.9-2.7c0-2.7.4-4.9 1.2-6.6.8-1.7 2.4-2.6 4.6-2.6 2 0 3.5.6 4.5 1.8 1 1.2 1.5 3.4 1.5 6.6 0 1.4-.1 2.5-.2 3.3-.1.8-.3 1.5-.6 2.2-.1.2-.2.4-.3.7-.1.2-.2.5-.3.7l2.1 1.6-1.1 1.2-2.1-1.6c-.2.2-.4.4-.6.5-.2.1-.4.3-.6.3-.4.2-.8.3-1.2.3-.4.1-.7.1-1 .1-2.6 0-4.2-.9-4.9-2.7-.7-1.7-1-3.6-1-5.8zm2 .2v.4c0 1.6.3 3 .8 4.3.5 1.3 1.6 2 3.2 2 .5 0 .9-.1 1.2-.2.3-.1.6-.3.7-.5L59 22.3l1.1-1.2 1.5 1.2v-.1c.2-.3.3-.7.5-1.3.1-.6.3-1.2.3-1.9 0-.2 0-.4.1-.7v-1.4c-.1-1.7-.3-3.2-.7-4.6-.4-1.4-1.5-2.1-3.3-2.1-1.2 0-2 .4-2.6 1.2-.5.8-.9 1.7-1.1 2.7-.1.5-.1.9-.2 1.4v2c.2 0 .2.1.2.1zm13.8-8.9h2.1v12.2c0 1.3.3 2.2.9 2.7.6.5 1.4.7 2.5.7 1.2 0 2.1-.3 2.6-.9.5-.6.8-1.6.8-2.8V8.7h2.1v12.9c0 .3 0 .5-.1.8 0 .3-.1.6-.2.9-.2.7-.7 1.3-1.5 1.9-.7.6-1.9.9-3.6.9-2.4 0-3.9-.5-4.6-1.4-.7-.9-1.1-2.2-1.1-3.8V8.7h.1zM82 25.6l5.1-17H90l4.9 17h-2.3l-1.3-4.8h-5.7l-1.3 4.8H82zm8.7-6.6-2.3-8.8-2.2 8.8h4.5zm6.9 6.6v-17h6c1.1.1 2.1.3 3.1.9 1 .5 1.5 1.6 1.7 3.3v.3c0 1-.3 1.8-.9 2.5-.6.7-1.2 1.1-2 1.3-.1 0-.2.1-.3.1h-.3.2c.1 0 .3 0 .5.1.2 0 .4.1.6.2.3.1.6.3.9.6.3.3.5.7.6 1.3 0 .3.1.7.1 1.2s.1.9.1 1.4c.1.8.2 1.6.4 2.3.2.7.4 1.1.6 1.1l.1-.1v.5h-2.5c-.2-.4-.4-.9-.4-1.4-.1-.5-.1-1.1-.1-1.7v-.2c0-1.1-.2-2.1-.4-2.9-.3-.9-1-1.3-2.4-1.3h-3.6v7.5h-2zm2-9.2h3.2c1 0 1.8-.2 2.4-.7.5-.5.8-1.2.8-2.1v-.5c-.1-1-.4-1.6-1-2-.6-.4-1.4-.6-2.6-.6h-2.9v5.9h.1zm12.7 9.2v-17h9.3v1.8h-7.2v5.4h6.6v1.8h-6.6v6.3h7v1.8h-9.1z"/><path class="st1" d="M3 22.3s4.2-3.1 6.5-6.1c2.3-3 5.6-6.9 7.5-10.6 0 0 1.5-3.2 2.9-1.6 0 0 4.3 7.5 7 10.4 2.7 2.9 9.2 9.5 9.2 9.5s-2.6 1-4.9-1.7l-10.1-12s-2.2-3.8-5.4 1.2c0 0-5.2 6-5.7 6.7-.5.7-1 1.5-.3 1.8.7.3 5.2.8 6.6 4.3 0 0-1.7-.8-2.4-.4s2.1 2.9 6.4 2.4c0 0-1.4 3.1-6.6.5 0 0-2.7-2.3-6-3 0 0-3.7-.5-4.1-.8-.5-.2-.6-.6-.6-.6z"/><path class="st0" d="M35.4 27.6s-4.3 3.2-6.7 6.3c-2.4 3.1-5.8 7.2-7.8 11 0 0-1.6 3.3-3.1 1.7 0 0-4.5-7.8-7.3-10.8-2.8-3-9.6-9.9-9.6-9.9s2.7-1.1 5.1 1.7l10.5 12.5s2.2 4 5.6-1.3c0 0 5.4-6.2 5.9-7 .6-.7 1-1.5.3-1.9-.7-.3-5.4-.8-6.8-4.5 0 0 1.8.8 2.5.4s-2.2-3-6.7-2.5c0 0 1.4-3.2 6.9-.5 0 0 2.8 2.4 6.3 3.1 0 0 3.9.5 4.3.9.6.4.6.8.6.8z"/><path class="st1" d="M63.9 47.1v2.7h-.6v-1.2c-.2.3-.3.5-.4.6-.2.2-.3.4-.6.5-.2.1-.4.2-.7.2-.5 0-.9-.2-1.1-.6-.2-.3-.3-.7-.3-1.1 0-.6.2-1.2.5-1.8.3-.6.7-1 1.3-1.2.2-.1.5-.2.7-.2.4 0 .8.2 1.2.5l-.4.4c-.2-.2-.5-.3-.8-.3-.2 0-.4.1-.6.2-.2.1-.4.3-.6.5-.2.2-.3.4-.4.7-.2.4-.3.8-.3 1.2 0 .4.1.7.2.9.2.2.4.4.6.4.3 0 .6-.2.9-.6.1-.1.2-.4.5-.8l.4-.7.5-.3zm2.4 0 .2-.5h.4c.2.1.4.2.5.4.1.2.2.4.2.6 0 .3-.1.6-.2 1-.1.3-.3.6-.5.8-.3.3-.7.5-1.1.5-.4 0-.8-.2-1-.5-.2-.3-.3-.6-.3-1 0-.7.3-1.3.8-1.9h-.6l.2-.5h2l-.1.2c-.3.1-.6.2-.8.4-.3.2-.6.5-.7.9-.3.4-.3.7-.3 1 0 .3.1.5.2.7.1.2.3.3.6.3s.6-.1.8-.4c.2-.2.3-.4.4-.6.1-.2.1-.5.1-.7 0-.2-.1-.3-.2-.4-.1-.1-.3-.2-.4-.2-.1-.1-.2-.1-.2-.1zm3.4 0 .2-.5h.4c.2.1.4.2.5.4.1.2.2.4.2.6 0 .3-.1.6-.2 1-.1.3-.3.6-.5.8-.3.3-.7.5-1.1.5-.4 0-.8-.2-1-.5-.2-.3-.3-.6-.3-1 0-.7.3-1.3.8-1.9h-.6l.2-.5h2l-.1.2c-.3.1-.6.2-.8.4-.3.2-.6.5-.7.9-.1.3-.2.6-.2.9 0 .3.1.5.2.7.1.2.3.3.6.3s.6-.1.8-.4c.2-.2.3-.4.4-.6.1-.2.1-.5.1-.7 0-.2-.1-.3-.2-.4-.1-.1-.3-.2-.4-.2h-.3zm4.9-2.7v5.4H74v-1.3c-.1.3-.3.6-.5.8-.4.4-.7.6-1.1.6-.3 0-.6-.1-.8-.3-.2-.2-.3-.5-.3-.9 0-.5.2-1 .5-1.5.3-.4.8-.8 1.3-.9.2-.1.4-.1.7-.2l-.2.5c-.4.1-.7.3-1 .5-.2.2-.4.4-.5.6-.1.3-.2.5-.2.8 0 .2 0 .3.1.5s.3.2.4.2c.1 0 .3-.1.5-.2s.3-.3.4-.4c.2-.3.4-.7.5-1.2.1-.4.1-.7.1-1.1v-2h.7v.1zm6.1 2.7-.2.5h-.4v2.2h-.6v-2.2h-1.9v2.2H77v-2.2h-.6l.2-.5h.4v-2h.6v2h1.9v-2h.6v2h.6zm3.8-1-.2.5h-.5c-.7 0-1.2.2-1.7.7-.2.2-.4.4-.5.7-.1.2-.2.5-.2.7 0 .2.1.4.2.5.1.1.2.2.4.2.1 0 .3 0 .4-.1.1-.1.3-.3.4-.5l.4-.8.5-1 .4-.2v3.1h-.5v-1.4l-.2.3c-.2.3-.4.6-.5.8-.2.3-.5.4-.9.4-.3 0-.5-.1-.7-.2-.3-.2-.4-.6-.4-1 0-.6.3-1.2.8-1.7.6-.6 1.3-.8 2.2-.8.2-.2.4-.2.6-.2zm3.2 3.7h-.5v-3.1l-.1-.1c-.1 0-.2.1-.3.3-.1.2-.3.5-.5 1.1-.2.5-.4 1-.6 1.3l-.1.3-.7.4v-3.8h.5v2.2c.2-.6.4-1.2.7-1.7.1-.2.2-.3.3-.4.1-.1.3-.2.5-.2.1 0 .2 0 .3.1.1.1.2.1.2.2s.1.2.1.3v3.1h.2zm3.7-5.4v5.4h-.5v-1.3c-.1.3-.3.6-.5.8-.4.4-.7.6-1.1.6-.3 0-.6-.1-.8-.3-.2-.2-.3-.5-.3-.9 0-.5.2-1 .5-1.5.3-.4.8-.8 1.3-.9.2-.1.4-.1.7-.2l-.2.5c-.4.1-.7.3-1 .5-.2.2-.4.4-.5.6-.1.3-.2.5-.2.8 0 .2 0 .3.1.5s.3.2.4.2c.1 0 .3-.1.5-.2s.3-.3.4-.4c.2-.3.4-.7.5-1.2.1-.4.1-.7.1-1.1v-2h.6v.1zm2.8 1.7-.1.5h-.4c-.6 0-.9.1-.9.4 0 .1 0 .2.1.2s.2.1.4.1c.3.1.5.2.7.3.3.2.4.4.4.7 0 .3-.1.6-.3.9-.4.4-.9.7-1.6.7-.2 0-.4 0-.7-.1l.2-.5c.2 0 .4.1.6.1.4 0 .8-.1 1-.3.2-.2.3-.4.3-.6 0-.2-.1-.3-.2-.4-.1 0-.1-.1-.2-.1s-.2-.1-.6-.1c-.4-.1-.6-.3-.6-.7 0-.2.1-.4.2-.5.1-.2.3-.3.5-.4.2-.1.5-.2.9-.2h.3zm2.1 1.6-.2.5h-1.6l.2-.5h1.6z"/><path class="st0" d="M100.1 47.1v2.7h-.6v-1.2c-.2.3-.3.5-.4.6-.2.2-.3.4-.6.5-.2.1-.4.2-.7.2-.5 0-.9-.2-1.1-.6-.2-.3-.3-.7-.3-1.1 0-.6.2-1.2.5-1.8.3-.6.7-1 1.3-1.2.3-.2.5-.2.8-.2.4 0 .8.2 1.2.5l-.4.4c-.2-.2-.5-.3-.8-.3-.2 0-.4.1-.6.2-.2.1-.4.3-.6.5-.2.2-.3.4-.4.7-.2.4-.3.8-.3 1.2 0 .4.1.7.2.9.2.2.4.4.6.4.3 0 .6-.2.9-.6.1-.1.2-.4.5-.8l.4-.7.4-.3zm2.4 0 .2-.5h.4c.2.1.4.2.5.4.1.2.2.4.2.6 0 .3-.1.6-.2 1-.1.3-.3.6-.5.8-.3.3-.7.5-1.1.5-.4 0-.8-.2-1-.5-.2-.3-.3-.6-.3-1 0-.7.3-1.3.8-1.9h-.6l.2-.5h2l-.1.2c-.3.1-.6.2-.8.4-.3.2-.6.5-.7.9-.1.3-.2.6-.2.9 0 .3.1.5.2.7.1.2.3.3.6.3s.6-.1.8-.4c.2-.2.3-.4.4-.6.1-.2.1-.5.1-.7 0-.2-.1-.3-.2-.4-.1-.1-.3-.2-.4-.2h-.3zm3.4 0 .2-.5h.4c.2.1.4.2.5.4.1.2.2.4.2.6 0 .3-.1.6-.2 1-.1.3-.3.6-.5.8-.3.3-.7.5-1.1.5-.4 0-.8-.2-1-.5-.2-.3-.3-.6-.3-1 0-.7.3-1.3.8-1.9h-.6l.2-.5h2l-.1.2c-.3.1-.6.2-.8.4-.3.2-.6.5-.7.9-.1.3-.2.6-.2.9 0 .3.1.5.2.7.1.2.3.3.6.3s.6-.1.8-.4c.2-.2.3-.4.4-.6.1-.2.1-.5.1-.7 0-.2-.1-.3-.2-.4-.1-.1-.3-.2-.4-.2h-.3zm4.9-2.7v5.4h-.5v-1.3c-.1.3-.3.6-.5.8-.4.4-.7.6-1.1.6-.3 0-.6-.1-.8-.3-.2-.2-.3-.5-.3-.9 0-.5.2-1 .5-1.5.3-.4.8-.8 1.3-.9.2-.1.4-.1.7-.2l-.2.5c-.4.1-.7.3-1 .5-.2.2-.4.4-.5.6-.1.3-.2.5-.2.8 0 .2 0 .3.1.5s.3.2.4.2c.1 0 .3-.1.5-.2s.3-.3.4-.4c.2-.3.4-.7.5-1.2.1-.4.1-.7.1-1.1v-2h.6v.1zm4.6 4.9-.2.5H113v-4.7h.6v4.2h1.8zm1 .5h-.5v-3.7h.5v3.7zm0-4.1h-.5v-1.3h.5v1.3zm2.6-.9c-.3 0-.6.2-.8.4-.2.2-.3.5-.4.9h1.2l-.2.5h-1v3.2h-.5v-3.2h-.4l.1-.5h.3c0-.5.2-1 .5-1.3.3-.3.7-.5 1.2-.6v.6zm2.2 4.7-.2-.5c-.2.1-.4.2-.5.2-.1 0-.2.1-.4.1-.3 0-.5-.1-.6-.2-.2-.2-.3-.4-.3-.6 0-.3.1-.5.2-.8.1-.3.3-.5.6-.7.2-.2.5-.3.7-.3.2 0 .4.1.4.3 0 .1 0 .2-.1.3l-.4.4c-.3.2-.6.3-1 .4 0 .1-.1.3-.1.3v.2c.2 0 .4 0 .5-.1.3-.1.5-.2.7-.3.2-.1.4-.3.6-.5.2-.2.3-.5.3-.7 0-.2-.1-.4-.2-.5-.2-.2-.4-.2-.6-.2-.3 0-.5.1-.8.2-.3.2-.5.4-.7.6-.3.5-.5 1-.5 1.5 0 .4.1.7.3.9.3.3.6.5 1 .5.3-.2.7-.3 1.1-.5zM124.9 1c1.1 0 2.1.5 2.9 1.2.7.7 1.2 1.7 1.2 2.9 0 1.1-.5 2.1-1.2 2.9-.7.7-1.8 1.2-2.9 1.2-1.1 0-2.1-.5-2.9-1.2-.7-.7-1.2-1.8-1.2-2.9 0-1.1.5-2.1 1.2-2.9.8-.7 1.8-1.2 2.9-1.2zm2.6 1.5c-.6-.6-1.5-1.1-2.5-1.1s-1.9.4-2.5 1.1c-.6.6-1.1 1.5-1.1 2.5s.4 1.9 1.1 2.5c.6.6 1.5 1.1 2.5 1.1s1.9-.4 2.5-1.1c.6-.6 1.1-1.5 1.1-2.5-.1-.9-.5-1.8-1.1-2.5z"/><path class="st0" d="M123 7.3V2.8h2c.4 0 .7 0 .9.1.2.1.4.2.5.4.1.2.2.4.2.7 0 .3-.1.6-.3.8-.2.2-.5.4-1 .4.2.1.3.2.4.2.2.2.3.4.5.6l.8 1.2h-.7l-.6-.9c-.2-.3-.3-.5-.4-.6l-.3-.3c-.1-.1-.2-.1-.3-.1h-1v2h-.7zm.6-2.5h1.3c.3 0 .5 0 .6-.1.2-.1.3-.1.3-.3.1-.1.1-.3.1-.4 0-.2-.1-.4-.2-.5-.2-.1-.4-.2-.7-.2h-1.4v1.5z"/></svg>